<svg xmlns="http://www.w3.org/2000/svg" style="display: none;">
  
    <symbol id="icon-linkedin" viewBox="0 0 512 512">
      <path d="m136 179l0 283l-94 0l0-283z m6-88c0 14-4 26-14 35c-10 9-23 14-39 14l0 0c-16 0-29-5-38-14c-10-9-14-21-14-35c0-14 4-26 14-35c10-9 23-14 39-14c16 0 28 5 38 14c9 9 14 21 14 35z m333 208l0 163l-94 0l0-152c0-20-3-35-11-47c-8-11-20-17-36-17c-12 0-22 4-30 10c-9 7-15 15-19 25c-2 5-3 13-3 23l0 158l-94 0c1-76 1-138 1-185c0-47 0-76 0-85l-1-13l94 0l0 41l0 0c4-6 7-12 11-16c4-5 10-10 17-15c6-5 15-10 24-13c10-3 21-4 33-4c33 0 59 11 79 32c20 22 29 54 29 95z"/>
    </symbol>
  
    <symbol id="icon-rss" viewBox="0 0 512 512">
      <path d="m165 384c0 15-6 28-16 39c-11 11-24 16-39 16c-16 0-28-5-39-16c-11-11-16-24-16-39c0-15 5-28 16-39c11-11 23-16 39-16c15 0 28 5 39 16c10 11 16 24 16 39z m146 35c0 5-1 10-5 14c-3 4-8 6-13 6l-39 0c-5 0-9-2-12-5c-4-3-6-7-6-12c-4-43-22-81-53-112c-31-31-68-48-112-52c-4-1-8-3-11-6c-4-3-5-8-5-12l0-39c0-5 2-10 6-13c3-4 7-5 12-5l2 0c30 2 59 10 87 23c28 13 52 30 74 52c22 21 39 46 52 74c13 28 20 57 23 87z m146 1c1 5-1 9-5 13c-3 4-8 6-13 6l-41 0c-5 0-9-2-13-5c-3-3-5-8-5-12c-3-41-12-80-29-117c-17-37-39-69-66-96c-27-27-59-49-96-66c-37-17-76-27-117-29c-5 0-9-2-12-6c-3-3-5-8-5-12l0-41c0-5 2-10 6-13c3-4 7-5 12-5l1 0c50 2 98 13 143 34c46 20 86 48 122 84c35 35 63 76 84 121c20 46 32 94 34 144z"/>
    </symbol>
  
    <symbol id="icon-twitter" viewBox="0 0 512 512">
      <path d="m481 117c-13 18-28 34-46 47c0 3 0 7 0 12c0 25-3 50-11 74c-7 25-18 49-33 71c-14 23-32 43-52 61c-21 17-45 31-74 41c-29 11-60 16-92 16c-52 0-99-14-142-42c7 1 14 2 22 2c43 0 81-14 115-40c-20 0-38-6-54-18c-16-12-27-27-33-46c7 1 13 2 18 2c8 0 16-1 24-4c-21-4-39-15-53-31c-14-17-21-37-21-59l0-1c13 7 27 11 42 11c-13-8-23-19-30-32c-8-14-11-29-11-44c0-17 4-33 12-47c23 28 51 51 84 68c33 17 69 27 107 29c-2-8-3-15-3-22c0-25 9-47 27-65c18-18 40-27 66-27c26 0 49 10 67 29c21-4 40-11 59-22c-7 22-21 39-41 51c18-2 35-7 53-14z"/>
    </symbol>
  
    <symbol id="icon-youtube" viewBox="0 0 512 512">
      <path d="m366 256c0-7-3-12-9-15l-146-92c-6-4-12-4-19 0c-6 3-9 8-9 16l0 182c0 8 3 13 9 16c3 2 6 3 9 3c4 0 7-1 10-3l146-92c6-3 9-8 9-15z m146 0c0 18 0 33 0 43c0 10-1 23-3 39c-1 16-3 30-6 42c-3 14-10 26-20 35c-10 10-22 15-35 17c-43 4-106 7-192 7c-86 0-149-3-192-7c-13-2-25-7-35-17c-10-9-17-21-20-35c-3-12-5-26-6-42c-2-16-3-29-3-39c0-10 0-25 0-43c0-18 0-33 0-43c0-10 1-23 3-39c1-16 3-30 6-42c3-14 10-26 20-35c10-10 22-15 35-17c43-4 106-7 192-7c86 0 149 3 192 7c13 2 25 7 35 17c10 9 17 21 20 35c3 12 5 26 6 42c2 16 3 29 3 39c0 10 0 25 0 43z"/>
    </symbol>
  
    <symbol id="icon-google-plus" viewBox="0 0 512 512">
      <path d="m269 419c0-4-1-8-2-12c-1-4-1-7-2-10c-1-3-3-7-5-10c-3-4-5-6-6-9c-2-2-5-5-8-8c-3-4-6-6-8-8c-2-1-5-4-9-7c-4-3-7-5-9-6c-1-2-5-4-9-7c-5-3-8-5-9-6c-3 0-8-1-14-1c-11 0-21 1-31 2c-9 2-20 4-30 8c-11 3-20 7-28 13c-8 5-15 12-20 21c-5 9-8 19-8 31c0 13 4 24 10 34c7 11 16 19 27 24c11 6 22 11 34 13c12 3 24 5 37 5c11 0 22-1 32-4c10-2 19-6 28-11c9-5 16-12 22-21c5-9 8-19 8-31z m-35-247c0-11-1-23-4-36c-4-13-8-25-14-37c-6-12-14-22-24-30c-10-8-21-12-34-12c-18 0-31 7-41 20c-10 13-15 29-15 47c0 9 1 18 4 28c2 10 5 20 10 30c4 10 10 19 16 27c6 8 13 14 22 19c9 5 18 7 28 7c18 0 32-5 40-17c8-11 12-27 12-46z m-37-135l125 0l-39 22l-38 0c13 9 24 21 31 36c7 16 11 32 11 48c0 15-2 27-6 38c-5 11-10 20-16 26c-7 7-13 13-19 19c-7 5-12 11-16 17c-5 6-7 13-7 20c0 5 2 9 5 14c3 5 7 9 12 14c5 4 11 9 17 14c6 4 12 10 18 15c6 6 12 13 17 19c5 7 9 15 12 25c3 9 5 19 5 30c0 30-13 57-40 81c-29 25-69 37-120 37c-11 0-23-1-34-3c-12-2-23-5-35-9c-12-5-22-10-31-17c-9-7-16-15-22-25c-6-11-9-22-9-35c0-12 4-25 11-39c6-12 15-22 27-31c12-9 26-16 42-21c15-4 30-8 44-10c14-2 28-3 43-4c-12-16-18-30-18-42c0-3 0-5 0-7c1-2 1-4 2-6c0-1 1-3 2-6c1-2 1-4 2-6c-8 1-14 2-20 2c-29 0-53-10-73-28c-20-19-31-43-31-71c0-26 9-50 28-71c18-21 40-35 66-41c18-4 36-5 54-5z m297 73l0 36l-73 0l0 73l-37 0l0-73l-73 0l0-36l73 0l0-73l37 0l0 73z"/>
    </symbol>
  
    <symbol id="icon-facebook" viewBox="0 0 512 512">
      <path d="m292 159l74 0l-9 81l-65 0l0 235l-97 0l0-235l-49 0l0-81l49 0l0-49c0-35 8-61 24-79c17-18 44-26 81-26l65 0l0 81l-40 0c-8 0-14 0-18 2c-5 1-8 3-10 6c-2 4-3 7-4 10c0 3-1 8-1 14z"/>
    </symbol>
  
    <symbol id="icon-github" viewBox="0 0 512 512">
      <path d="m475 256c0 48-14 91-41 129c-28 38-64 65-109 79c-5 1-8 1-11-2c-2-2-3-5-3-8l0-61c0-18-5-32-15-40c11-1 20-3 29-5c9-3 18-6 27-11c9-6 17-12 23-19c6-8 11-18 15-30c4-13 6-27 6-43c0-23-8-43-23-59c7-18 7-37-2-59c-5-1-13 0-23 4c-10 3-19 8-26 12l-11 7c-18-5-36-7-55-7c-19 0-37 2-55 7c-3-2-7-5-12-8c-5-3-13-6-24-11c-11-4-19-5-24-4c-9 22-9 41-2 59c-15 16-23 36-23 59c0 16 2 30 6 42c4 13 9 23 15 30c6 8 14 14 23 20c9 5 18 8 27 11c8 2 18 4 29 5c-8 7-12 17-14 29c-4 2-8 4-13 5c-4 1-10 1-16 1c-6 0-13-2-19-6c-6-4-11-10-16-18c-3-6-8-11-14-15c-5-4-10-6-14-7l-5-1c-4 0-7 1-9 2c-1 1-2 2-1 3c0 1 1 3 2 4c2 1 3 2 4 3l2 2c4 2 8 5 13 11c4 5 7 10 9 14l2 7c3 7 7 13 13 17c6 5 12 8 19 9c7 1 14 2 20 2c6 0 12 0 16-1l6-1c0 7 0 16 1 25c0 10 0 15 0 16c0 3-2 6-4 8c-2 3-6 3-11 2c-45-14-81-41-109-79c-27-38-41-81-41-129c0-40 9-77 29-110c20-34 46-60 80-80c33-20 70-29 110-29c40 0 77 9 110 29c34 20 60 46 80 80c20 33 29 70 29 110z"/>
    </symbol>
  
    <symbol id="icon-home" viewBox="0 0 512 512">
      <path d="m421 283l0 138c0 5-2 9-6 12c-3 4-8 6-13 6l-109 0l0-110l-74 0l0 110l-109 0c-5 0-10-2-13-6c-4-3-6-7-6-12l0-138c0 0 0 0 1 0c0-1 0-1 0-1l164-136l164 136c0 0 1 1 1 1z m63-19l-17 21c-2 2-4 3-6 3l-1 0c-3 0-5-1-6-2l-198-165l-198 165c-2 2-4 2-7 2c-2 0-4-1-6-3l-17-21c-2-2-2-4-2-7c0-3 1-5 3-6l205-171c6-5 14-8 22-8c8 0 16 3 22 8l69 58l0-56c0-2 1-5 3-6c2-2 4-3 7-3l54 0c3 0 5 1 7 3c2 1 3 4 3 6l0 117l62 52c2 1 3 3 3 6c0 3 0 5-2 7z"/>
    </symbol>
  
</svg>
