<?xml version="1.0" standalone="no"?>
<!DOCTYPE svg PUBLIC "-//W3C//DTD SVG 20010904//EN"
 "http://www.w3.org/TR/2001/REC-SVG-20010904/DTD/svg10.dtd">
<svg version="1.0" xmlns="http://www.w3.org/2000/svg"
 width="200.000000pt" height="200.000000pt" viewBox="0 0 200.000000 200.000000"
 preserveAspectRatio="xMidYMid meet">
<metadata>
Created by potrace 1.14, written by Peter Selinger 2001-2017
</metadata>
<g transform="translate(0.000000,200.000000) scale(0.100000,-0.100000)"
fill="#000000" stroke="none">
<path d="M833 1966 c-367 -70 -656 -324 -766 -671 -74 -236 -57 -491 47 -711
57 -120 93 -171 185 -268 95 -98 173 -154 293 -211 147 -69 243 -90 423 -89
181 0 267 19 420 94 266 129 455 361 527 646 32 127 32 341 0 468 -27 107 -95
254 -156 340 -51 71 -180 198 -249 245 -77 52 -226 119 -317 141 -110 27 -307
35 -407 16z m180 -332 c4 -53 9 -99 12 -102 3 -3 17 1 32 9 14 8 53 14 87 14
55 0 75 -7 199 -68 75 -37 141 -67 145 -67 4 0 13 -4 20 -9 11 -6 10 -15 -3
-48 l-16 -40 107 -292 c79 -215 111 -291 123 -291 24 -1 -77 -90 -128 -113
-100 -44 -222 -31 -321 34 -58 40 -80 67 -60 79 5 3 59 140 118 303 91 247
106 297 93 302 -32 10 -394 86 -396 83 -2 -2 4 -169 12 -373 8 -203 11 -406 8
-450 -6 -79 -5 -81 22 -107 36 -34 124 -75 227 -104 l81 -23 -375 0 -375 0 85
25 c106 31 175 63 218 99 30 25 33 33 29 69 -2 23 2 228 9 456 7 228 11 416 9
418 -5 5 -409 91 -412 88 -8 -7 212 -583 226 -594 14 -12 12 -17 -24 -48 -22
-19 -62 -47 -90 -62 -43 -23 -62 -26 -140 -27 -83 0 -94 2 -151 33 -34 19 -74
47 -90 63 -25 26 -26 30 -11 42 8 6 59 131 112 277 53 145 103 279 110 297 13
31 13 33 -5 33 -26 0 -33 15 -26 53 l6 32 179 3 c199 3 229 -3 287 -59 l31
-30 6 53 c4 29 7 75 7 101 0 84 17 42 23 -59z"/>
<path d="M495 1398 c-21 -57 -68 -185 -105 -285 l-68 -183 214 0 213 0 -30 83
c-17 45 -64 171 -104 280 -39 108 -74 200 -77 203 -3 2 -22 -41 -43 -98z"/>
<path d="M1356 1037 c-54 -149 -101 -278 -104 -284 -3 -10 43 -13 208 -13 165
0 211 3 208 13 -42 123 -204 557 -208 557 -3 0 -50 -123 -104 -273z"/>
</g>
</svg>
