<?xml version="1.0" standalone="no"?>
<!DOCTYPE svg PUBLIC "-//W3C//DTD SVG 20010904//EN"
 "http://www.w3.org/TR/2001/REC-SVG-20010904/DTD/svg10.dtd">
<svg version="1.0" xmlns="http://www.w3.org/2000/svg"
 width="200.000000pt" height="200.000000pt" viewBox="0 0 200.000000 200.000000"
 preserveAspectRatio="xMidYMid meet">
<metadata>
Created by potrace 1.14, written by Peter Selinger 2001-2017
</metadata>
<g transform="translate(0.000000,200.000000) scale(0.100000,-0.100000)"
fill="#000000" stroke="none">
<path d="M865 1973 c-238 -46 -404 -131 -556 -282 -143 -144 -245 -338 -276
-528 -16 -99 -8 -302 16 -398 19 -77 110 -290 130 -305 4 -3 21 -25 39 -50 55
-76 153 -169 240 -227 91 -61 216 -120 275 -129 20 -4 37 -9 37 -13 0 -3 10
-7 23 -8 36 -2 102 -11 102 -13 0 -1 27 -3 60 -4 33 -1 67 -6 74 -11 9 -5 12
-4 8 2 -4 6 13 10 41 11 84 4 112 7 112 14 0 3 8 5 18 3 9 -1 22 1 27 5 6 5
24 10 41 13 17 3 40 10 51 16 11 5 23 7 27 4 3 -3 6 -1 6 5 0 7 11 12 25 12
14 0 25 5 25 11 0 5 5 7 10 4 6 -3 10 -1 10 5 0 7 7 9 17 6 10 -4 14 -4 10 0
-9 9 42 36 54 28 5 -3 8 -2 7 3 -2 4 0 9 5 10 4 2 17 12 29 22 11 11 26 18 31
14 6 -3 8 -2 5 3 -3 5 0 15 8 22 8 7 14 9 14 5 0 -4 7 1 16 12 8 11 20 20 27
20 7 1 11 7 9 14 -1 7 1 10 6 7 5 -3 21 8 36 24 14 17 23 30 19 30 -5 1 3 7
17 15 14 7 25 17 25 22 0 4 4 7 8 5 5 -1 6 1 3 6 -3 5 4 18 14 30 11 12 20 25
20 31 0 5 7 12 16 15 8 3 12 10 9 16 -3 5 -1 10 5 10 6 0 9 4 6 9 -3 5 1 12
10 15 8 3 12 10 9 16 -3 5 -1 10 5 10 6 0 9 4 5 9 -3 6 5 20 17 32 13 12 16
18 8 14 -12 -7 -13 -6 -3 7 7 8 10 18 6 21 -3 4 -1 7 5 7 7 0 11 3 10 8 -1 4
5 21 12 37 8 17 15 37 16 45 7 38 11 50 16 56 4 3 4 12 1 20 -3 8 1 14 8 14
11 0 11 3 -1 10 -9 6 -10 10 -3 10 7 0 10 9 8 22 -3 12 1 26 8 30 9 6 9 10 -2
17 -7 5 -9 11 -4 14 9 6 8 177 -1 237 -6 35 -8 45 -25 113 -5 20 -6 37 -2 37
3 0 2 4 -4 8 -10 7 -25 42 -49 110 -6 17 -14 32 -18 32 -5 0 -8 5 -8 12 0 11
-57 107 -70 118 -4 3 -13 15 -22 28 -41 60 -140 153 -224 209 -100 68 -242
131 -334 148 -14 3 -36 8 -50 11 -28 7 -274 13 -305 7z"/>
</g>
</svg>
